HIERARCHY
ROOT root
{
	OFFSET	0	13.1	24.9
	CHANNELS 6  Xposition Yposition Zposition Xrotation Yrotation Zrotation
	JOINT spine_1
	{
		OFFSET	0	9.99999	0
		CHANNELS 3  Xrotation Yrotation Zrotation
		JOINT spine_2
		{
			OFFSET	0	112	-10
			CHANNELS 3  Xrotation Yrotation Zrotation
			JOINT spine_3
			{
				OFFSET	0	206.5	19.3
				CHANNELS 3  Xrotation Yrotation Zrotation
				JOINT spine_4
				{
					OFFSET	0	110.4	14.6
					CHANNELS 3  Xrotation Yrotation Zrotation
					JOINT neck_1
					{
						OFFSET	0	71.8	-50.3
						CHANNELS 3  Xrotation Yrotation Zrotation
						JOINT neck_2
						{
							OFFSET	0	86.2	-25.8
							CHANNELS 3  Xrotation Yrotation Zrotation
							JOINT head_ee
							{
								OFFSET	0	179.8	-8.7
								CHANNELS 3  Xrotation Yrotation Zrotation
								End Site
								{
									OFFSET	1	0	0
								}
							}
						}
					}
					JOINT left_clavicle
					{
						OFFSET	-43.2	22.4	-70.8
						CHANNELS 3  Xrotation Yrotation Zrotation
						JOINT left_shoulder
						{
							OFFSET	-93.9	-5.79999	48.7
							CHANNELS 3  Xrotation Yrotation Zrotation
							JOINT left_elbow
							{
								OFFSET	-291.4	-30.8	15.2
								CHANNELS 3  Xrotation Yrotation Zrotation
								JOINT left_lowarm_twist
								{
									OFFSET	-110.7	-3.89999	13.6
									CHANNELS 3  Xrotation Yrotation Zrotation
									JOINT left_hand
									{
										OFFSET	-110.7	-3.89999	13.6
										CHANNELS 3  Xrotation Yrotation Zrotation
										JOINT left_ee
										{
											OFFSET	-80.8	-5.10001	12.1
											CHANNELS 3  Xrotation Yrotation Zrotation
											End Site
											{
												OFFSET	1	0	0
											}
										}
									}
								}
							}
						}
					}
					JOINT right_clavicle
					{
						OFFSET	43.2	22.4	-70.8
						CHANNELS 3  Xrotation Yrotation Zrotation
						JOINT right_shoulder
						{
							OFFSET	93.9	-5.79999	48.7
							CHANNELS 3  Xrotation Yrotation Zrotation
							JOINT right_elbow
							{
								OFFSET	291.4	-30.8	15.2
								CHANNELS 3  Xrotation Yrotation Zrotation
								JOINT right_lowarm_twist
								{
									OFFSET	110.7	-3.89999	13.6
									CHANNELS 3  Xrotation Yrotation Zrotation
									JOINT right_hand
									{
										OFFSET	110.7	-3.89999	13.6
										CHANNELS 3  Xrotation Yrotation Zrotation
										JOINT right_ee
										{
											OFFSET	80.8	-5.10001	12.1
											CHANNELS 3  Xrotation Yrotation Zrotation
											End Site
											{
												OFFSET	1	0	0
											}
										}
									}
								}
							}
						}
					}
				}
			}
		}
	}
	JOINT left_hip
	{
		OFFSET	-82.8	-127.5	0.300001
		CHANNELS 3  Xrotation Yrotation Zrotation
		JOINT left_knee
		{
			OFFSET	-28.2	-396.7	2.2
			CHANNELS 3  Xrotation Yrotation Zrotation
			JOINT left_ankle
			{
				OFFSET	-11.7	-411.3	35.4
				CHANNELS 3  Xrotation Yrotation Zrotation
				JOINT left_toes
				{
					OFFSET	0	-60	-88.6
					CHANNELS 3  Xrotation Yrotation Zrotation
					JOINT left_foot_ee
					{
						OFFSET	-22.5	-16.5	-42.2
						CHANNELS 3  Xrotation Yrotation Zrotation
						End Site
						{
							OFFSET	1	0	0
						}
					}
				}
			}
		}
	}
	JOINT right_hip
	{
		OFFSET	82.8	-127.5	0.300001
		CHANNELS 3  Xrotation Yrotation Zrotation
		JOINT right_knee
		{
			OFFSET	28.2	-396.7	2.2
			CHANNELS 3  Xrotation Yrotation Zrotation
			JOINT right_ankle
			{
				OFFSET	11.7	-411.3	35.4
				CHANNELS 3  Xrotation Yrotation Zrotation
				JOINT right_toes
				{
					OFFSET	0	-60	-88.6
					CHANNELS 3  Xrotation Yrotation Zrotation
					JOINT right_foot_ee
					{
						OFFSET	22.5	-16.5	-42.2
						CHANNELS 3  Xrotation Yrotation Zrotation
						End Site
						{
							OFFSET	1	0	0
						}
					}
				}
			}
		}
	}
}
MOTION
Frames: 5
Frame Time: 0.02
1621.95 714.908 -1572.05 -1.67645 69.8137 -2.27503 -0.773511 0.90618 5.03359 -0.759611 0.584467 5.08088 -0.697125 -0.559045 5.08374 -0.733085 0.24977 5.10822 -2.76633 12.7714 -5.42114 -2.24373 27.3966 -3.94858 -0.0 0.0 -0.0 -2.31596 23.1206 -0.516546 -28.1603 -17.9076 59.5517 0.843564 -22.6787 0.169167 -61.9286 -5.52353 5.15716 1.96616 -12.8754 7.78592 -0.0 0.0 -0.0 13.2757 24.4532 -26.4902 5.89064 30.7205 -62.4073 2.02868 45.1362 -0.843206 34.8098 0.107179 4.3778 2.95543 27.8888 -7.11558 0.0 0.0 0.0 19.1378 -6.84445 -5.96842 4.01998 -0.186294 -0.588536 -18.8858 22.3914 2.92079 2.35885 -0.0 -0.0 -0.0 0.0 -0.0 -16.0892 -1.42261 8.43617 -9.43735 -0.272033 -1.42116 23.5448 16.1061 3.42942 -6.40796 0.0 0.0 0.0 0.0 0.0 
1602.46 714.996 -1568.78 -1.05747 68.3907 -2.71608 -0.799876 0.923331 5.04552 -0.785921 0.600828 5.09387 -0.721653 -0.548114 5.0998 -0.757831 0.263092 5.12236 -1.82341 12.252 -5.59299 -1.23825 26.5245 -4.43321 -0.0 0.0 -0.0 -2.25859 23.3369 -0.399193 -27.6164 -18.2379 59.6865 0.861755 -23.1168 0.176245 -61.5998 -5.48235 5.14819 1.83299 -13.9268 6.41372 -0.0 0.0 -0.0 13.3294 24.5419 -26.6056 5.21313 30.4895 -62.6311 1.93068 43.7187 -0.774599 33.9687 0.0732674 4.27577 3.17205 28.0297 -8.42866 0.0 0.0 0.0 18.7126 -6.99464 -5.93989 3.41091 -0.155415 -0.500211 -21.0363 22.1047 3.25212 2.20278 -0.0 -0.0 -0.0 0.0 -0.0 -16.6743 -1.44456 8.6117 -10.8031 -0.291878 -1.62978 22.6426 16.4577 3.32365 -6.35393 0.0 0.0 0.0 0.0 0.0 
1578.96 714.551 -1559.4 -0.898188 67.816 -1.99209 -0.705968 0.943735 5.00077 -0.692278 0.624027 5.05051 -0.626896 -0.50733 5.06353 -0.662533 0.297663 5.08013 0.940784 11.6788 -6.13737 1.75088 25.7321 -5.75487 -0.0 0.0 -0.0 -2.33656 23.2534 -0.521329 -26.5661 -18.6312 60.3126 0.903165 -24.1035 0.19283 -61.7897 -5.50613 5.1534 1.73793 -14.0087 5.73504 -0.0 0.0 -0.0 13.2999 24.6488 -26.5255 3.84507 30.1588 -62.9139 1.86235 42.6889 -0.72782 33.1107 0.0402196 4.17119 3.32417 28.1173 -9.3573 0.0 0.0 0.0 17.0636 -6.80054 -5.41617 2.62566 -0.116996 -0.385869 -20.6614 21.9117 3.19127 2.72608 -0.0 -0.0 -0.0 0.0 -0.0 -16.6273 -1.75727 8.57136 -11.3756 -0.298718 -1.71736 19.9834 16.5051 2.97732 -6.37685 0.0 0.0 0.0 0.0 0.0 
1556.45 716.728 -1556.73 1.08168 68.1625 -3.69374 -0.872804 0.809967 4.9863 -0.859112 0.491445 5.02759 -0.805394 -0.647708 5.0099 -0.84037 0.150597 5.04925 3.59186 10.8481 -6.42591 4.5372 24.3035 -6.72982 -0.0 0.0 -0.0 -2.96664 23.26 -1.38945 -26.1707 -18.9638 60.3601 0.978763 -25.866 0.224765 -61.9733 -5.52914 5.15836 1.68296 -14.3747 5.201 -0.0 0.0 -0.0 13.2139 24.7279 -26.3168 1.83148 29.8369 -63.1874 1.82142 42.0552 -0.700235 31.6193 -0.0134745 3.9883 3.53342 28.4993 -10.4921 0.0 0.0 0.0 15.5884 -6.37486 -6.39834 2.09145 -0.091758 -0.307793 -20.1146 21.7449 3.10412 2.76028 -0.0 -0.0 -0.0 0.0 -0.0 -16.1195 -1.76676 10.4129 -15.689 -0.322064 -2.3786 17.1405 14.8345 2.55926 -5.96684 0.0 0.0 0.0 0.0 0.0 
1531.18 717.479 -1557.52 2.61299 68.0432 -4.24933 -0.941791 0.722053 4.92535 -0.928393 0.407572 4.96119 -0.882731 -0.721488 4.92543 -0.916563 0.0644468 4.97745 4.55684 10.4267 -6.68509 5.54745 23.7171 -7.25251 -0.0 0.0 -0.0 -3.36876 23.4255 -1.91082 -24.3198 -19.4287 60.428 0.971155 -25.6909 0.221456 -62.1003 -5.54505 5.16175 1.59551 -14.2811 4.65344 -0.0 0.0 -0.0 13.3291 25.7359 -26.4703 -0.331944 29.5688 -63.6674 1.79317 41.6103 -0.681394 30.5591 -0.0487353 3.85749 3.57578 27.6536 -11.2305 0.0 0.0 0.0 14.8169 -5.79771 -6.22533 0.731838 -0.0308269 -0.108073 -18.203 23.9556 2.83409 3.60625 -0.0 -0.0 -0.0 0.0 -0.0 -15.8767 -0.724592 9.69326 -18.94 -0.306746 -2.8771 15.1968 13.7069 2.27214 -6.33353 0.0 0.0 0.0 0.0 0.0 
